<svg width="108" height="35" viewBox="0 0 108 35" fill="none" xmlns="http://www.w3.org/2000/svg">
<path d="M0.96875 34V32.6172C1.34375 32.3828 1.76562 32.2031 2.23438 32.0781C2.71875 31.9531 3.0625 31.8359 3.26562 31.7266C3.46875 31.6172 3.64062 31.4453 3.78125 31.2109C4.09375 30.7266 4.25 29.8359 4.25 28.5391V6.20312C4.25 4.89062 4.13281 4.05469 3.89844 3.69531C3.67969 3.33594 3.46875 3.10938 3.26562 3.01562C3.07812 2.90625 2.85938 2.8125 2.60938 2.73438C1.82812 2.51563 1.28125 2.29687 0.96875 2.07812V0.695312H10.0859V34H0.96875ZM12.0312 32.0781L12.4766 32.1016C15.9922 32.1016 18.4844 31.7344 19.9531 31C21.5 30.2188 22.5938 28.6719 23.2344 26.3594C23.375 25.875 23.4922 25.4375 23.5859 25.0469C23.6953 24.6406 23.8125 24.2734 23.9375 23.9453C24.1719 23.2578 24.5 22.7031 24.9219 22.2812H26.4453V34H12.0312V32.0781ZM20.7031 0.695312C21.6719 0.695312 23.2344 0.578125 25.3906 0.34375V11.8281H23.75C23.2031 11.125 22.7812 10.3359 22.4844 9.46094C22.1875 8.58594 21.8828 7.73438 21.5703 6.90625C21.2578 6.07812 20.9453 5.41406 20.6328 4.91406C20.3203 4.41406 19.9297 3.99219 19.4609 3.64844C18.5234 2.96094 17.25 2.61719 15.6406 2.61719C14.0469 2.61719 12.8438 2.73438 12.0312 2.96875V0.695312H20.7031ZM12.0312 14.1719H18.875V18.5781H12.0312V14.1719Z" fill="#39BAF8"/>
<path d="M30.9922 8.40625H40.0449C41.9902 8.40625 43.6484 8.69922 45.0195 9.28516C46.3906 9.87109 47.4395 10.7383 48.166 11.8867C48.9043 13.0234 49.2734 14.4297 49.2734 16.1055C49.2734 17.3828 49.0391 18.5078 48.5703 19.4805C48.1016 20.4531 47.4395 21.2734 46.584 21.9414C45.7285 22.5977 44.709 23.1074 43.5254 23.4707L42.1895 24.1211H34.0508L34.0156 20.623H40.1152C41.1699 20.623 42.0488 20.4355 42.752 20.0605C43.4551 19.6855 43.9824 19.1758 44.334 18.5312C44.6973 17.875 44.8789 17.1367 44.8789 16.3164C44.8789 15.4258 44.7031 14.6523 44.3516 13.9961C44.0117 13.3281 43.4844 12.8184 42.7695 12.4668C42.0547 12.1035 41.1465 11.9219 40.0449 11.9219H35.4043V34H30.9922V8.40625ZM45.5996 34L39.5879 22.5039L44.2109 22.4863L50.3105 33.7715V34H45.5996ZM61.6309 34.3516C60.2246 34.3516 58.9531 34.123 57.8164 33.666C56.6914 33.1973 55.7305 32.5469 54.9336 31.7148C54.1484 30.8828 53.5449 29.9043 53.123 28.7793C52.7012 27.6543 52.4902 26.4414 52.4902 25.1406V24.4375C52.4902 22.9492 52.707 21.6016 53.1406 20.3945C53.5742 19.1875 54.1777 18.1562 54.9512 17.3008C55.7246 16.4336 56.6387 15.7715 57.6934 15.3145C58.748 14.8574 59.8906 14.6289 61.1211 14.6289C62.4805 14.6289 63.6699 14.8574 64.6895 15.3145C65.709 15.7715 66.5527 16.416 67.2207 17.248C67.9004 18.0684 68.4043 19.0469 68.7324 20.1836C69.0723 21.3203 69.2422 22.5742 69.2422 23.9453V25.7559H54.5469V22.7148H65.0586V22.3809C65.0352 21.6191 64.8828 20.9043 64.6016 20.2363C64.332 19.5684 63.916 19.0293 63.3535 18.6191C62.791 18.209 62.041 18.0039 61.1035 18.0039C60.4004 18.0039 59.7734 18.1562 59.2227 18.4609C58.6836 18.7539 58.2324 19.1816 57.8691 19.7441C57.5059 20.3066 57.2246 20.9863 57.0254 21.7832C56.8379 22.5684 56.7441 23.4531 56.7441 24.4375V25.1406C56.7441 25.9727 56.8555 26.7461 57.0781 27.4609C57.3125 28.1641 57.6523 28.7793 58.0977 29.3066C58.543 29.834 59.082 30.25 59.7148 30.5547C60.3477 30.8477 61.0684 30.9941 61.877 30.9941C62.8965 30.9941 63.8047 30.7891 64.6016 30.3789C65.3984 29.9688 66.0898 29.3887 66.6758 28.6387L68.9082 30.8008C68.498 31.3984 67.9648 31.9727 67.3086 32.5234C66.6523 33.0625 65.8496 33.502 64.9004 33.8418C63.9629 34.1816 62.873 34.3516 61.6309 34.3516ZM83.2695 30.1855V21.1152C83.2695 20.4355 83.1465 19.8496 82.9004 19.3574C82.6543 18.8652 82.2793 18.4844 81.7754 18.2148C81.2832 17.9453 80.6621 17.8105 79.9121 17.8105C79.2207 17.8105 78.623 17.9277 78.1191 18.1621C77.6152 18.3965 77.2227 18.7129 76.9414 19.1113C76.6602 19.5098 76.5195 19.9609 76.5195 20.4648H72.3008C72.3008 19.7148 72.4824 18.9883 72.8457 18.2852C73.209 17.582 73.7363 16.9551 74.4277 16.4043C75.1191 15.8535 75.9453 15.4199 76.9062 15.1035C77.8672 14.7871 78.9453 14.6289 80.1406 14.6289C81.5703 14.6289 82.8359 14.8691 83.9375 15.3496C85.0508 15.8301 85.9238 16.5566 86.5566 17.5293C87.2012 18.4902 87.5234 19.6973 87.5234 21.1504V29.6055C87.5234 30.4727 87.582 31.252 87.6992 31.9434C87.8281 32.623 88.0098 33.2148 88.2441 33.7188V34H83.9023C83.7031 33.543 83.5449 32.9629 83.4277 32.2598C83.3223 31.5449 83.2695 30.8535 83.2695 30.1855ZM83.8848 22.4336L83.9199 25.0527H80.8789C80.0938 25.0527 79.4023 25.1289 78.8047 25.2812C78.207 25.4219 77.709 25.6328 77.3105 25.9141C76.9121 26.1953 76.6133 26.5352 76.4141 26.9336C76.2148 27.332 76.1152 27.7832 76.1152 28.2871C76.1152 28.791 76.2324 29.2539 76.4668 29.6758C76.7012 30.0859 77.041 30.4082 77.4863 30.6426C77.9434 30.877 78.4941 30.9941 79.1387 30.9941C80.0059 30.9941 80.7617 30.8184 81.4062 30.4668C82.0625 30.1035 82.5781 29.6641 82.9531 29.1484C83.3281 28.6211 83.5273 28.123 83.5508 27.6543L84.9219 29.5352C84.7812 30.0156 84.541 30.5312 84.2012 31.082C83.8613 31.6328 83.416 32.1602 82.8652 32.6641C82.3262 33.1562 81.6758 33.5605 80.9141 33.877C80.1641 34.1934 79.2969 34.3516 78.3125 34.3516C77.0703 34.3516 75.9629 34.1055 74.9902 33.6133C74.0176 33.1094 73.2559 32.4355 72.7051 31.5918C72.1543 30.7363 71.8789 29.7695 71.8789 28.6914C71.8789 27.6836 72.0664 26.793 72.4414 26.0195C72.8281 25.2344 73.3906 24.5781 74.1289 24.0508C74.8789 23.5234 75.793 23.125 76.8711 22.8555C77.9492 22.5742 79.1797 22.4336 80.5625 22.4336H83.8848ZM103.555 30.0625V7H107.809V34H103.959L103.555 30.0625ZM91.1797 24.7012V24.332C91.1797 22.8906 91.3496 21.5781 91.6895 20.3945C92.0293 19.1992 92.5215 18.1738 93.166 17.3184C93.8105 16.4512 94.5957 15.7891 95.5215 15.332C96.4473 14.8633 97.4902 14.6289 98.6504 14.6289C99.7988 14.6289 100.807 14.8516 101.674 15.2969C102.541 15.7422 103.279 16.3809 103.889 17.2129C104.498 18.0332 104.984 19.0176 105.348 20.166C105.711 21.3027 105.969 22.5684 106.121 23.9629V25.1406C105.969 26.5 105.711 27.7422 105.348 28.8672C104.984 29.9922 104.498 30.9648 103.889 31.7852C103.279 32.6055 102.535 33.2383 101.656 33.6836C100.789 34.1289 99.7754 34.3516 98.6152 34.3516C97.4668 34.3516 96.4297 34.1113 95.5039 33.6309C94.5898 33.1504 93.8105 32.4766 93.166 31.6094C92.5215 30.7422 92.0293 29.7227 91.6895 28.5508C91.3496 27.3672 91.1797 26.084 91.1797 24.7012ZM95.416 24.332V24.7012C95.416 25.5684 95.4922 26.377 95.6445 27.127C95.8086 27.877 96.0605 28.5391 96.4004 29.1133C96.7402 29.6758 97.1797 30.1211 97.7188 30.4492C98.2695 30.7656 98.9258 30.9238 99.6875 30.9238C100.648 30.9238 101.439 30.7129 102.061 30.291C102.682 29.8691 103.168 29.3008 103.52 28.5859C103.883 27.8594 104.129 27.0508 104.258 26.1602V22.9785C104.188 22.2871 104.041 21.6426 103.818 21.0449C103.607 20.4473 103.32 19.9258 102.957 19.4805C102.594 19.0234 102.143 18.6719 101.604 18.4258C101.076 18.168 100.449 18.0391 99.7227 18.0391C98.9492 18.0391 98.293 18.2031 97.7539 18.5312C97.2148 18.8594 96.7695 19.3105 96.418 19.8848C96.0781 20.459 95.8262 21.127 95.6621 21.8887C95.498 22.6504 95.416 23.4648 95.416 24.332Z" fill="black"/>
</svg>
